<svg width="160" height="160" viewBox="0 0 160 160" fill="none" xmlns="http://www.w3.org/2000/svg">
<g filter="url(#filter0_d_2_61)">
<rect x="16" y="8" width="128" height="128" rx="28" fill="white" shape-rendering="crispEdges"/>
<rect x="16.5" y="8.5" width="127" height="127" rx="27.5" stroke="#E2E8F0" shape-rendering="crispEdges"/>
<path d="M115.003 68.5022L101.002 54.5017L87.0007 68.5022M101.002 54.5017V86.0028M44.9973 86.0013L59.1349 52.0851C59.2679 51.7662 59.4922 51.4938 59.7797 51.3022C60.0671 51.1107 60.4049 51.0084 60.7503 51.0084C61.0958 51.0084 61.4335 51.1107 61.721 51.3022C62.0084 51.4938 62.2328 51.7662 62.3657 52.0851L76.4998 86.0013M49.5624 75.5025H71.9362" stroke="url(#paint0_linear_2_61)" stroke-width="2" stroke-linecap="round"/>
</g>
<defs>
<filter id="filter0_d_2_61" x="0" y="0" width="160" height="160" filterUnits="userSpaceOnUse" color-interpolation-filters="sRGB">
<feFlood flood-opacity="0" result="BackgroundImageFix"/>
<feColorMatrix in="SourceAlpha" type="matrix" values="0 0 0 0 0 0 0 0 0 0 0 0 0 0 0 0 0 0 127 0" result="hardAlpha"/>
<feOffset dy="8"/>
<feGaussianBlur stdDeviation="8"/>
<feComposite in2="hardAlpha" operator="out"/>
<feColorMatrix type="matrix" values="0 0 0 0 0.0588235 0 0 0 0 0.0901961 0 0 0 0 0.164706 0 0 0 0.0509804 0"/>
<feBlend mode="normal" in2="BackgroundImageFix" result="effect1_dropShadow_2_61"/>
<feBlend mode="normal" in="SourceGraphic" in2="effect1_dropShadow_2_61" result="shape"/>
</filter>
<linearGradient id="paint0_linear_2_61" x1="44.9973" y1="86.0028" x2="115.003" y2="86.0028" gradientUnits="userSpaceOnUse">
<stop stop-color="#3B82F6"/>
<stop offset="1" stop-color="#4F46E5"/>
</linearGradient>
</defs>
</svg>
